# xmcd CD database file
#
# Track frame offsets:
#	150
#	18285
#	38825
#	58530
#	79250
#	97742
#	126268
#	155697
#	180663
#	201188
#
# Disc length: 2986 seconds
#
# Revision: 0
# Processed by: cddbd v1.4PL0 Copyright (c) Steve Scherf et al.
# Submitted via: CDex 1.40Release
#
DISCID=7a0ba80a
DTITLE=Ministers of Sinister - Got It Bad
DYEAR=1995
DGENRE=Blues
TTITLE0=Gangster of Love
TTITLE1=Ain't Gonna Happen Twice
TTITLE2=Woman Like a Runaway Train
TTITLE3=Drop Down Mama
TTITLE4=Got It Bad
TTITLE5=Bloody Murder
TTITLE6=Low Down Dog
TTITLE7=Rainin' in My Heart
TTITLE8=Run Here Baby
TTITLE9=Must Be Jelly
EXTD=YEAR: 1995 ID3G: 0
EXTT0=
EXTT1=
EXTT2=
EXTT3=
EXTT4=
EXTT5=
EXTT6=
EXTT7=
EXTT8=
EXTT9=
PLAYORDER=
